<?xml version="1.0" encoding="utf-8"?>
<!-- Generator: Adobe Illustrator 15.1.0, SVG Export Plug-In . SVG Version: 6.00 Build 0)  -->
<!DOCTYPE svg PUBLIC "-//W3C//DTD SVG 1.0//EN" "http://www.w3.org/TR/2001/REC-SVG-20010904/DTD/svg10.dtd">
<svg version="1.0" id="圖層_1" xmlns="http://www.w3.org/2000/svg" xmlns:xlink="http://www.w3.org/1999/xlink" x="0px" y="0px"
	 width="16px" height="16px" viewBox="0 0 16 16" enable-background="new 0 0 16 16" xml:space="preserve">
<g opacity="0.3">
	<g>
		<g>
			<polyline fill="none" stroke="#000000" stroke-miterlimit="10" points="0.5,15 0.5,15.5 1,15.5 			"/>
			
				<line fill="none" stroke="#000000" stroke-miterlimit="10" stroke-dasharray="0.0108,0,0,0" x1="3.682" y1="15.5" x2="3.692" y2="15.5"/>
			
				<line fill="none" stroke="#000000" stroke-miterlimit="10" stroke-dasharray="1.0769,2.6815,0.0108,0,0,0" x1="3.692" y1="15.5" x2="15" y2="15.5"/>
			<polyline fill="none" stroke="#000000" stroke-miterlimit="10" points="15,15.5 15.5,15.5 15.5,15 			"/>
			
				<line fill="none" stroke="#000000" stroke-miterlimit="10" stroke-dasharray="0.0108,0,0,0" x1="15.5" y1="12.318" x2="15.5" y2="12.308"/>
			
				<line fill="none" stroke="#000000" stroke-miterlimit="10" stroke-dasharray="1.0769,2.6815,0.0108,0,0,0" x1="15.5" y1="12.308" x2="15.5" y2="1"/>
			<polyline fill="none" stroke="#000000" stroke-miterlimit="10" points="15.5,1 15.5,0.5 15,0.5 			"/>
			
				<line fill="none" stroke="#000000" stroke-miterlimit="10" stroke-dasharray="0.0108,0,0,0" x1="12.318" y1="0.5" x2="12.308" y2="0.5"/>
			
				<line fill="none" stroke="#000000" stroke-miterlimit="10" stroke-dasharray="1.0769,2.6815,0.0108,0,0,0" x1="12.308" y1="0.5" x2="1" y2="0.5"/>
			<polyline fill="none" stroke="#000000" stroke-miterlimit="10" points="1,0.5 0.5,0.5 0.5,1 			"/>
			
				<line fill="none" stroke="#000000" stroke-miterlimit="10" stroke-dasharray="0.0108,0,0,0" x1="0.5" y1="3.682" x2="0.5" y2="3.692"/>
			
				<line fill="none" stroke="#000000" stroke-miterlimit="10" stroke-dasharray="1.0769,2.6815,0.0108,0,0,0" x1="0.5" y1="3.692" x2="0.5" y2="15"/>
		</g>
	</g>
	<g>
		<g>
			<line fill="none" stroke="#000000" stroke-miterlimit="10" x1="0.5" y1="8" x2="1" y2="8"/>
			
				<line fill="none" stroke="#000000" stroke-miterlimit="10" stroke-dasharray="0.0108,0,0,0" x1="3.682" y1="8" x2="3.692" y2="8"/>
			
				<line fill="none" stroke="#000000" stroke-miterlimit="10" stroke-dasharray="1.0769,2.6815,0.0108,0,0,0" x1="3.692" y1="8" x2="15" y2="8"/>
			<line fill="none" stroke="#000000" stroke-miterlimit="10" x1="15" y1="8" x2="15.5" y2="8"/>
		</g>
	</g>
	<g>
		<g>
			<line fill="none" stroke="#000000" stroke-miterlimit="10" x1="8" y1="15.5" x2="8" y2="15"/>
			
				<line fill="none" stroke="#000000" stroke-miterlimit="10" stroke-dasharray="0.0108,0,0,0" x1="8" y1="12.318" x2="8" y2="12.308"/>
			
				<line fill="none" stroke="#000000" stroke-miterlimit="10" stroke-dasharray="1.0769,2.6815,0.0108,0,0,0" x1="8" y1="12.308" x2="8" y2="1"/>
			<line fill="none" stroke="#000000" stroke-miterlimit="10" x1="8" y1="1" x2="8" y2="0.5"/>
		</g>
	</g>
</g>
<line fill="none" stroke="#000000" stroke-miterlimit="10" x1="0" y1="0.5" x2="16" y2="0.5"/>
</svg>
