<?xml version="1.0" encoding="utf-8"?>
<!-- Generator: Adobe Illustrator 15.1.0, SVG Export Plug-In . SVG Version: 6.00 Build 0)  -->
<!DOCTYPE svg PUBLIC "-//W3C//DTD SVG 1.0//EN" "http://www.w3.org/TR/2001/REC-SVG-20010904/DTD/svg10.dtd">
<svg version="1.0" id="Layer_01" xmlns="http://www.w3.org/2000/svg" xmlns:xlink="http://www.w3.org/1999/xlink" x="0px" y="0px"
	 width="32px" height="32px" viewBox="0 0 32 32" enable-background="new 0 0 32 32" xml:space="preserve">
<g opacity="0.3">
	<g>
		<g>
			<polyline fill="none" stroke="#000000" stroke-width="2" stroke-miterlimit="10" points="1,30 1,31 2,31 			"/>
			
				<line fill="none" stroke="#000000" stroke-width="2" stroke-miterlimit="10" stroke-dasharray="0.01,0,0,0" x1="4.99" y1="31" x2="5" y2="31"/>
			
				<line fill="none" stroke="#000000" stroke-width="2" stroke-miterlimit="10" stroke-dasharray="2,2.99,0.01,0,0,0" x1="5" y1="31" x2="30" y2="31"/>
			<polyline fill="none" stroke="#000000" stroke-width="2" stroke-miterlimit="10" points="30,31 31,31 31,30 			"/>
			
				<line fill="none" stroke="#000000" stroke-width="2" stroke-miterlimit="10" stroke-dasharray="0.01,0,0,0" x1="31" y1="27.01" x2="31" y2="27"/>
			
				<line fill="none" stroke="#000000" stroke-width="2" stroke-miterlimit="10" stroke-dasharray="2,2.99,0.01,0,0,0" x1="31" y1="27" x2="31" y2="2"/>
			<polyline fill="none" stroke="#000000" stroke-width="2" stroke-miterlimit="10" points="31,2 31,1 30,1 			"/>
			
				<line fill="none" stroke="#000000" stroke-width="2" stroke-miterlimit="10" stroke-dasharray="0.01,0,0,0" x1="27.01" y1="1" x2="27" y2="1"/>
			
				<line fill="none" stroke="#000000" stroke-width="2" stroke-miterlimit="10" stroke-dasharray="2,2.99,0.01,0,0,0" x1="27" y1="1" x2="2" y2="1"/>
			<polyline fill="none" stroke="#000000" stroke-width="2" stroke-miterlimit="10" points="2,1 1,1 1,2 			"/>
			
				<line fill="none" stroke="#000000" stroke-width="2" stroke-miterlimit="10" stroke-dasharray="0.01,0,0,0" x1="1" y1="4.99" x2="1" y2="5"/>
			
				<line fill="none" stroke="#000000" stroke-width="2" stroke-miterlimit="10" stroke-dasharray="2,2.99,0.01,0,0,0" x1="1" y1="5" x2="1" y2="30"/>
		</g>
	</g>
	<g>
		<g>
			<line fill="none" stroke="#000000" stroke-width="2" stroke-miterlimit="10" x1="1" y1="16" x2="2" y2="16"/>
			
				<line fill="none" stroke="#000000" stroke-width="2" stroke-miterlimit="10" stroke-dasharray="0.01,0,0,0" x1="4.99" y1="16" x2="5" y2="16"/>
			
				<line fill="none" stroke="#000000" stroke-width="2" stroke-miterlimit="10" stroke-dasharray="2,2.99,0.01,0,0,0" x1="5" y1="16" x2="30" y2="16"/>
			<line fill="none" stroke="#000000" stroke-width="2" stroke-miterlimit="10" x1="30" y1="16" x2="31" y2="16"/>
		</g>
	</g>
	<g>
		<g>
			<line fill="none" stroke="#000000" stroke-width="2" stroke-miterlimit="10" x1="16" y1="31" x2="16" y2="30"/>
			
				<line fill="none" stroke="#000000" stroke-width="2" stroke-miterlimit="10" stroke-dasharray="0.01,0,0,0" x1="16" y1="27.01" x2="16" y2="27"/>
			
				<line fill="none" stroke="#000000" stroke-width="2" stroke-miterlimit="10" stroke-dasharray="2,2.99,0.01,0,0,0" x1="16" y1="27" x2="16" y2="2"/>
			<line fill="none" stroke="#000000" stroke-width="2" stroke-miterlimit="10" x1="16" y1="2" x2="16" y2="1"/>
		</g>
	</g>
</g>
<line fill="none" stroke="#000000" stroke-width="2" stroke-miterlimit="10" x1="1" y1="32" x2="1" y2="0"/>
</svg>
